<svg
  xmlns="http://www.w3.org/2000/svg"
  xmlns:xlink="http://www.w3.org/1999/xlink"
  viewBox="0 0 16 16"
  version="1.1"
>
  <g id="surface1">
    <path
      style=" "
      d="M 2.5 2 C 1.675781 2 1 2.675781 1 3.5 L 1 8.5 C 1 9.324219 1.675781 10 2.5
    10 L 3.992188 10 L 3.992188 12 L 6.664063 10 L 9.5 10 C 10.324219 10 11 9.324219 11 8.5 L
    11 3.5 C 11 2.675781 10.324219 2 9.5 2 Z M 2.5 3 L 9.5 3 C 9.78125 3 10 3.21875 10 3.5 L
    10 8.5 C 10 8.78125 9.78125 9 9.5 9 L 6.328125 9 L 4.992188 10 L 4.992188 9 L 2.5 9 C 2.21875
    9 2 8.78125 2 8.5 L 2 3.5 C 2 3.21875 2.21875 3 2.5 3 Z M 12 5 L 12 8.5 C 12 9.878906
    10.878906 11 9.5 11 L 8.1875 11 L 8.183594 11.003906 C 7.683594 11.003906 7.246094
    11.003906 6.988281 11.003906 L 5.242188 12.3125 C 5.511719 12.726563 5.972656 13 6.5 13 L
    9.335938 13 L 12.003906 15 L 12.003906 13 L 13.5 13 C 14.328125 13 15 12.328125 15 11.5
    L 15 6.5 C 15 5.671875 14.328125 5 13.5 5 Z "
    ></path>
  </g>
</svg>
