<?xml version="1.0" encoding="UTF-8"?>
<svg id="Calque_2" xmlns="http://www.w3.org/2000/svg" viewBox="0 0 97.55 95.18">
  <g id="Calque_1-2" data-name="Calque_1">
    <path d="M97.55,47.59c0-3.22-13.65-4.86-14.33-7.87-.71-3.11,10.86-10.5,9.51-13.3-1.38-2.85-14.38,1.6-16.33-.85-1.97-2.46,5.26-14.15,2.8-16.11-2.45-1.96-12.24,7.67-15.09,6.3-2.8-1.35-1.37-15.02-4.47-15.73-3.01-.69-7.63,12.24-10.85,12.24S40.93-.66,37.93.03c-3.11.71-1.67,14.38-4.47,15.73-2.85,1.38-12.64-8.25-15.09-6.3-2.46,1.96,4.76,13.65,2.8,16.11-1.95,2.45-14.96-2-16.33.85-1.35,2.8,10.21,10.2,9.51,13.3-.68,3.01-14.33,4.65-14.33,7.87s13.65,4.86,14.33,7.87c.71,3.11-10.86,10.5-9.51,13.3,1.38,2.85,14.38-1.6,16.33.85,1.96,2.46-5.26,14.15-2.8,16.11,2.45,1.96,12.24-7.67,15.09-6.3,2.8,1.35,1.37,15.02,4.47,15.73,3.01.69,7.63-12.24,10.85-12.24s7.84,12.93,10.85,12.24c3.11-.71,1.67-14.38,4.47-15.73,2.85-1.38,12.64,8.25,15.09,6.3,2.46-1.96-4.76-13.65-2.8-16.11,1.95-2.45,14.96,2,16.33-.85,1.35-2.8-10.21-10.2-9.51-13.3.68-3.01,14.33-4.65,14.33-7.87ZM49.14,39.11c.65-.22,1.51-.02,1.88.8.69,1.51,3.83,7.74,5.63,9.69,1.11,1.2.78,1.87.48,2.16-.27.26-.69.38-1.15.38-.72,0-1.52-.28-1.97-.7-.83-.8-5.54-7.47-5.84-10.53v-.06c-.19-.76.21-1.48.97-1.73ZM30.87,42.96c-1,.72-1.99,1.82-2.71,2.62-.44.48-.75.83-.99,1.02-.19.15-.42.23-.65.23-.19,0-.38-.05-.56-.16-.38-.23-.56-.66-.47-1.1.16-.74.59-1.57.61-1.6,2.71-5.32,6.69-6.24,6.85-6.28.26-.06,6.37-1.31,8.96,2.87.76,1.22.95,2.13.58,2.77-.31.54-.96.8-1.92.76-.86-.03-1.71-.32-2.47-.86-1.44-1.02-4.29-2.4-7.23-.28ZM69.65,55.4c-1.86,3.14-6,8.63-12.91,10.11-1.16.25-2.35.37-3.57.37-4.98,0-10.42-2.07-16.21-6.19-.33-.23-.43-.66-.24-1.01.19-.35.59-.5.96-.36,5.82,2.21,20.47,6.25,30.68-3.91.3-.3.75-.32,1.08-.07.33.25.41.7.2,1.06ZM71.93,38.91c-.28.48-.84.71-1.7.69-.74-.02-1.48-.28-2.13-.74-1.2-.85-3.59-2.01-6.04-.24-.84.61-1.68,1.54-2.29,2.21-.37.41-.64.71-.85.88-.18.14-.38.21-.6.21-.18,0-.35-.05-.51-.15-.35-.22-.52-.61-.44-1.01.14-.64.51-1.35.53-1.38,2.32-4.54,5.72-5.33,5.86-5.36h0c.22-.05,5.46-1.12,7.68,2.47.66,1.06.82,1.86.49,2.43Z"/>
  </g>
</svg>
